<?xml version="1.0" encoding="UTF-8"?>
<svg id="Ebene_1" xmlns="http://www.w3.org/2000/svg" viewBox="0 0 1392.29 1005">
  <defs>
    <style>
      .cls-1 {
        fill: #010101;
      }
    </style>
  </defs>
  <path class="cls-1" d="M0,407.05v59.53c0,16.38,14.84,28.76,30.95,25.82l417.07-76.1c12.23-2.23,24.34,4.42,29.02,15.94l226.13,556.4c4.02,9.89,13.63,16.36,24.31,16.36h238.78c20.01,0,32.65-21.49,22.95-38.98l-309.06-556.85c-8.72-15.71.57-35.33,18.24-38.55l393.41-71.78c12.47-2.28,21.53-13.14,21.53-25.82V127.94c0-17.3-16.45-29.87-33.14-25.32l-475.45,129.51c-11.66,3.18-23.98-2.02-29.84-12.58l-66.23-119.33c-2.59-4.67-6.55-8.44-11.35-10.81L322.8,3.43c-14.49-7.14-32.01-2.85-41.57,10.16L6.03,388.64c-3.92,5.34-6.03,11.79-6.03,18.41ZM157.44,307.05l133.88-220.53c11.2-18.44,38.62-16.25,46.75,3.74l67.35,165.72c5.93,14.58-2.23,31.06-17.41,35.2l-201.23,54.81c-22.88,6.23-41.64-18.67-29.33-38.94Z"/>
  <path class="cls-1" d="M1189.71,88.43l.36,166.19c.03,13.35,12.14,23.42,25.27,21.02l159.39-29.18c10.18-1.86,17.57-10.74,17.56-21.09l-.19-180.89c-.01-14.13-13.47-24.37-27.09-20.63l-159.57,43.88c-9.31,2.56-15.76,11.04-15.74,20.69Z"/>
</svg>